<svg width="1095" height="352" viewBox="0 0 1095 352" fill="none" xmlns="http://www.w3.org/2000/svg">
<g clip-path="url(#clip0_736_37118)">
<path d="M513.368 78.1193H482.171V112.084H463.329V133.081H482.171V200.084C482.171 222.625 498.85 227.256 518.001 227.256C524.179 227.256 530.975 226.947 536.226 226.021V201.628C532.828 202.246 529.739 202.554 526.65 202.554C516.148 202.554 513.368 199.775 513.368 189.277V133.081H536.226V112.084H513.368V78.1193Z" fill="#1A2857"/>
<path d="M581.323 133.39H581.014V112.393H551.361V226.021H582.559V174.765C582.559 154.695 590.59 138.33 613.447 138.33C617.154 138.33 621.787 138.639 624.567 139.565V110.54C622.714 109.923 619.934 109.305 617.772 109.305C602.636 109.305 587.192 119.186 581.323 133.39Z" fill="#1A2857"/>
<path d="M738.855 141.418C738.855 114.246 711.673 108.996 688.815 108.996C663.178 108.996 637.231 117.642 635.378 146.975H666.575C667.811 134.625 675.224 129.684 687.271 129.684C698.391 129.684 707.657 131.537 707.657 145.123C707.657 157.782 689.742 157.165 670.591 159.944C651.131 162.723 631.98 168.589 631.98 194.526C631.98 217.684 649.278 228.491 670.591 228.491C684.491 228.491 699.008 224.786 708.893 214.288C709.202 217.993 710.128 221.698 711.055 225.403H742.87C740.09 220.772 738.855 210.582 738.855 200.084V141.418ZM707.657 181.867C707.657 188.66 706.731 208.112 682.329 208.112C672.135 208.112 663.178 205.333 663.178 193.6C663.178 182.175 671.827 178.779 681.711 176.926C691.286 175.074 702.406 175.074 707.657 170.442V181.867Z" fill="#1A2857"/>
<path d="M816.694 205.642C797.234 205.642 790.748 186.189 790.748 169.825C790.748 153.151 797.234 132.772 817.312 132.772C830.285 132.772 838.316 139.565 840.478 152.225H871.058C869.205 123.2 844.494 108.996 817.621 108.996C780.554 108.996 759.55 135.242 759.55 170.442C759.55 204.407 782.717 228.8 817.003 228.8C846.965 228.8 867.969 212.435 871.676 182.175H841.405C839.86 196.379 831.212 205.642 816.694 205.642Z" fill="#1A2857"/>
<path d="M929.128 78.1193H897.931V112.084H879.089V133.081H897.931V200.084C897.931 222.625 914.611 227.256 933.762 227.256C939.939 227.256 946.735 226.947 951.986 226.021V201.628C948.588 202.246 945.499 202.554 942.41 202.554C931.908 202.554 929.128 199.775 929.128 189.277V133.081H951.986V112.084H929.128V78.1193Z" fill="#1A2857"/>
<path d="M1069.05 200.702V141.418C1069.05 114.246 1041.87 108.996 1019.01 108.996C993.377 108.996 967.43 117.642 965.577 146.975H996.774C998.01 134.625 1005.42 129.684 1017.47 129.684C1028.59 129.684 1037.86 131.537 1037.86 145.123C1037.86 157.782 1019.94 157.165 1000.79 159.944C981.33 162.723 962.179 168.589 962.179 194.526C962.179 217.684 979.477 228.491 1000.79 228.491C1014.69 228.491 1029.21 224.786 1039.09 214.288C1039.4 217.993 1040.33 221.698 1041.25 225.403H1073.07C1069.98 221.389 1069.05 210.891 1069.05 200.702ZM1037.86 181.867C1037.86 188.66 1036.93 208.112 1012.53 208.112C1002.33 208.112 993.377 205.333 993.377 193.6C993.377 182.175 1002.03 178.779 1011.91 176.926C1021.49 175.074 1032.61 175.074 1037.86 170.442V181.867Z" fill="#1A2857"/>
<path d="M194.598 87.6912H161.856C155.678 87.6912 150.736 82.7508 150.736 76.5754V43.8456C150.736 37.6701 155.678 32.7298 161.856 32.7298H194.598C200.776 32.7298 205.718 37.6701 205.718 43.8456V76.5754C205.718 82.7508 200.776 87.6912 194.598 87.6912Z" fill="#203F6F"/>
<path d="M269.039 110.849H248.653C242.784 110.849 238.151 106.218 238.151 100.351V79.9719C238.151 74.1053 242.784 69.4737 248.653 69.4737H269.039C274.908 69.4737 279.542 74.1053 279.542 79.9719V100.351C279.542 106.218 274.599 110.849 269.039 110.849Z" fill="#1A2857"/>
<path d="M59.615 116.098H39.2285C33.3597 116.098 28.7264 111.467 28.7264 105.6V85.221C28.7264 79.3544 33.3597 74.7228 39.2285 74.7228H59.615C65.4838 74.7228 70.1171 79.3544 70.1171 85.221V105.6C70.1171 111.467 65.4838 116.098 59.615 116.098Z" fill="#226EB7"/>
<path d="M141.161 147.284H124.79C120.465 147.284 116.759 143.888 116.759 139.256V122.891C116.759 118.568 120.157 114.863 124.79 114.863H141.161C145.485 114.863 149.192 118.26 149.192 122.891V139.256C148.883 143.888 145.485 147.284 141.161 147.284Z" fill="#24558E"/>
<path d="M408.347 143.888L459.004 68.8561H425.953H419.776L387.652 116.716L363.559 151.607L313.828 226.021H314.137H352.748L387.961 171.677L422.247 226.021H463.329L408.347 143.888Z" fill="#1A2857"/>
<path d="M381.165 106.218L358.307 68.8561H318.152L362.323 133.698L381.165 106.218Z" fill="#1A2857"/>
<path d="M358.32 250.18L340.988 282.523V302H330.16V282.523L312.23 250.18H324.992L335.75 272.75L346.051 250.18H358.32ZM394.632 268.531C397.867 272.586 399.484 277.379 399.484 282.91C399.484 288.535 397.867 293.352 394.632 297.359C391.398 301.344 386.488 303.336 379.902 303.336C373.316 303.336 368.406 301.344 365.172 297.359C361.937 293.352 360.32 288.535 360.32 282.91C360.32 277.379 361.937 272.586 365.172 268.531C368.406 264.477 373.316 262.449 379.902 262.449C386.488 262.449 391.398 264.477 394.632 268.531ZM379.867 270.922C376.937 270.922 374.675 271.965 373.082 274.051C371.511 276.113 370.726 279.066 370.726 282.91C370.726 286.754 371.511 289.719 373.082 291.805C374.675 293.891 376.937 294.934 379.867 294.934C382.797 294.934 385.047 293.891 386.617 291.805C388.187 289.719 388.972 286.754 388.972 282.91C388.972 279.066 388.187 276.113 386.617 274.051C385.047 271.965 382.797 270.922 379.867 270.922ZM435.585 296.586C435.492 296.703 435.257 297.055 434.882 297.641C434.507 298.227 434.062 298.742 433.546 299.188C431.976 300.594 430.452 301.555 428.976 302.07C427.523 302.586 425.812 302.844 423.843 302.844C418.171 302.844 414.351 300.805 412.382 296.727C411.281 294.477 410.73 291.16 410.73 286.777V263.68H420.995V286.777C420.995 288.957 421.253 290.598 421.769 291.699C422.683 293.645 424.476 294.617 427.148 294.617C430.57 294.617 432.913 293.234 434.179 290.469C434.835 288.969 435.163 286.988 435.163 284.527V263.68H445.324V302H435.585V296.586ZM478.612 272.926C474.581 272.926 471.874 274.238 470.491 276.863C469.718 278.34 469.331 280.613 469.331 283.684V302H459.241V263.68H468.804V270.359C470.351 267.805 471.698 266.059 472.847 265.121C474.722 263.551 477.159 262.766 480.159 262.766C480.347 262.766 480.499 262.777 480.616 262.801C480.757 262.801 481.05 262.812 481.495 262.836V273.102C480.862 273.031 480.3 272.984 479.808 272.961C479.315 272.938 478.917 272.926 478.612 272.926ZM544.557 291.348H525.467L521.881 302H510.561L529.053 250.18H541.288L559.639 302H547.897L544.557 291.348ZM541.534 282.418L535.065 262.027L528.385 282.418H541.534ZM569.725 250.18H580.482V302H569.725V250.18ZM641.611 302H619.287V250.18H641.611C644.822 250.227 647.494 250.602 649.626 251.305C653.259 252.5 656.201 254.691 658.451 257.879C660.255 260.457 661.486 263.246 662.142 266.246C662.798 269.246 663.126 272.105 663.126 274.824C663.126 281.715 661.744 287.551 658.978 292.332C655.228 298.777 649.439 302 641.611 302ZM649.662 263.398C647.997 260.586 644.705 259.18 639.783 259.18H629.798V293H639.783C644.892 293 648.455 290.48 650.47 285.441C651.572 282.676 652.122 279.383 652.122 275.562C652.122 270.289 651.302 266.234 649.662 263.398ZM676.271 267.828C678.919 264.453 683.466 262.766 689.911 262.766C694.107 262.766 697.833 263.598 701.091 265.262C704.349 266.926 705.978 270.066 705.978 274.684V292.262C705.978 293.48 706.001 294.957 706.048 296.691C706.118 298.004 706.318 298.895 706.646 299.363C706.974 299.832 707.466 300.219 708.122 300.523V302H697.224C696.919 301.227 696.708 300.5 696.591 299.82C696.474 299.141 696.38 298.367 696.31 297.5C694.927 299 693.333 300.277 691.528 301.332C689.372 302.574 686.935 303.195 684.216 303.195C680.747 303.195 677.876 302.211 675.603 300.242C673.353 298.25 672.228 295.438 672.228 291.805C672.228 287.094 674.044 283.684 677.677 281.574C679.669 280.426 682.599 279.605 686.466 279.113L689.876 278.691C691.728 278.457 693.052 278.164 693.849 277.812C695.278 277.203 695.993 276.254 695.993 274.965C695.993 273.395 695.443 272.316 694.341 271.73C693.263 271.121 691.669 270.816 689.56 270.816C687.193 270.816 685.517 271.402 684.532 272.574C683.829 273.441 683.36 274.613 683.126 276.09H673.458C673.669 272.738 674.607 269.984 676.271 267.828ZM683.724 294.758C684.661 295.531 685.81 295.918 687.169 295.918C689.325 295.918 691.306 295.285 693.11 294.02C694.939 292.754 695.888 290.445 695.958 287.094V283.367C695.325 283.766 694.681 284.094 694.025 284.352C693.392 284.586 692.513 284.809 691.388 285.02L689.138 285.441C687.028 285.816 685.517 286.273 684.603 286.812C683.056 287.727 682.282 289.145 682.282 291.066C682.282 292.777 682.763 294.008 683.724 294.758ZM736.77 294.863V302.352L732.024 302.527C727.29 302.691 724.055 301.871 722.321 300.066C721.196 298.918 720.634 297.148 720.634 294.758V271.168H715.29V264.031H720.634V253.344H730.548V264.031H736.77V271.168H730.548V291.418C730.548 292.988 730.747 293.973 731.145 294.371C731.544 294.746 732.763 294.934 734.802 294.934C735.106 294.934 735.423 294.934 735.751 294.934C736.102 294.91 736.442 294.887 736.77 294.863ZM748.965 267.828C751.614 264.453 756.161 262.766 762.606 262.766C766.801 262.766 770.528 263.598 773.786 265.262C777.043 266.926 778.672 270.066 778.672 274.684V292.262C778.672 293.48 778.696 294.957 778.743 296.691C778.813 298.004 779.012 298.895 779.34 299.363C779.668 299.832 780.161 300.219 780.817 300.523V302H769.918C769.614 301.227 769.403 300.5 769.286 299.82C769.168 299.141 769.075 298.367 769.004 297.5C767.622 299 766.028 300.277 764.223 301.332C762.067 302.574 759.629 303.195 756.911 303.195C753.442 303.195 750.571 302.211 748.297 300.242C746.047 298.25 744.922 295.438 744.922 291.805C744.922 287.094 746.739 283.684 750.372 281.574C752.364 280.426 755.293 279.605 759.161 279.113L762.571 278.691C764.422 278.457 765.747 278.164 766.543 277.812C767.973 277.203 768.688 276.254 768.688 274.965C768.688 273.395 768.137 272.316 767.036 271.73C765.957 271.121 764.364 270.816 762.254 270.816C759.887 270.816 758.211 271.402 757.227 272.574C756.524 273.441 756.055 274.613 755.821 276.09H746.153C746.364 272.738 747.301 269.984 748.965 267.828ZM756.418 294.758C757.356 295.531 758.504 295.918 759.864 295.918C762.02 295.918 764 295.285 765.805 294.02C767.633 292.754 768.582 290.445 768.653 287.094V283.367C768.02 283.766 767.375 284.094 766.719 284.352C766.086 284.586 765.207 284.809 764.082 285.02L761.832 285.441C759.723 285.816 758.211 286.273 757.297 286.812C755.75 287.727 754.977 289.145 754.977 291.066C754.977 292.777 755.457 294.008 756.418 294.758ZM853.16 279.359H827.988V292.684H856.676V302H817.406V250.18H855.41V259.355H827.988V270.359H853.16V279.359ZM886.66 271.098C883.261 271.098 880.929 272.539 879.664 275.422C879.007 276.945 878.679 278.891 878.679 281.258V302H868.695V263.75H878.363V269.34C879.652 267.371 880.871 265.953 882.019 265.086C884.082 263.539 886.695 262.766 889.859 262.766C893.82 262.766 897.054 263.809 899.562 265.895C902.093 267.957 903.359 271.391 903.359 276.195V302H893.093V278.691C893.093 276.676 892.824 275.129 892.285 274.051C891.3 272.082 889.425 271.098 886.66 271.098ZM927.788 308.715C928.866 309.629 930.683 310.086 933.237 310.086C936.847 310.086 939.261 308.879 940.48 306.465C941.277 304.918 941.675 302.316 941.675 298.66V296.199C940.714 297.84 939.683 299.07 938.581 299.891C936.589 301.414 933.999 302.176 930.812 302.176C925.89 302.176 921.952 300.453 918.999 297.008C916.07 293.539 914.605 288.852 914.605 282.945C914.605 277.25 916.023 272.469 918.859 268.602C921.695 264.711 925.714 262.766 930.917 262.766C932.839 262.766 934.515 263.059 935.945 263.645C938.382 264.652 940.351 266.504 941.851 269.199V263.68H951.589V300.031C951.589 304.977 950.757 308.703 949.093 311.211C946.234 315.523 940.749 317.68 932.64 317.68C927.741 317.68 923.745 316.719 920.652 314.797C917.558 312.875 915.847 310.004 915.519 306.184H926.417C926.698 307.355 927.155 308.199 927.788 308.715ZM926.101 288.922C927.46 292.156 929.898 293.773 933.413 293.773C935.757 293.773 937.737 292.895 939.355 291.137C940.972 289.355 941.78 286.531 941.78 282.664C941.78 279.031 941.007 276.266 939.46 274.367C937.937 272.469 935.886 271.52 933.308 271.52C929.792 271.52 927.366 273.172 926.03 276.477C925.327 278.234 924.976 280.402 924.976 282.98C924.976 285.207 925.351 287.188 926.101 288.922ZM975.597 263.68V302H965.436V263.68H975.597ZM975.597 249.863V259.109H965.436V249.863H975.597ZM1007.69 271.098C1004.29 271.098 1001.96 272.539 1000.69 275.422C1000.04 276.945 999.71 278.891 999.71 281.258V302H989.725V263.75H999.393V269.34C1000.68 267.371 1001.9 265.953 1003.05 265.086C1005.11 263.539 1007.73 262.766 1010.89 262.766C1014.85 262.766 1018.08 263.809 1020.59 265.895C1023.12 267.957 1024.39 271.391 1024.39 276.195V302H1014.12V278.691C1014.12 276.676 1013.85 275.129 1013.32 274.051C1012.33 272.082 1010.46 271.098 1007.69 271.098ZM1070.79 290.75C1070.53 293.023 1069.35 295.332 1067.24 297.676C1063.96 301.402 1059.37 303.266 1053.46 303.266C1048.58 303.266 1044.28 301.695 1040.56 298.555C1036.83 295.414 1034.97 290.305 1034.97 283.227C1034.97 276.594 1036.64 271.508 1039.99 267.969C1043.37 264.43 1047.74 262.66 1053.11 262.66C1056.3 262.66 1059.17 263.258 1061.72 264.453C1064.28 265.648 1066.39 267.535 1068.05 270.113C1069.55 272.387 1070.52 275.023 1070.97 278.023C1071.22 279.781 1071.33 282.312 1071.28 285.617H1045.06C1045.2 289.461 1046.4 292.156 1048.68 293.703C1050.06 294.664 1051.72 295.145 1053.67 295.145C1055.73 295.145 1057.41 294.559 1058.7 293.387C1059.4 292.754 1060.02 291.875 1060.56 290.75H1070.79ZM1060.88 279.008C1060.71 276.359 1059.9 274.355 1058.45 272.996C1057.02 271.613 1055.24 270.922 1053.11 270.922C1050.79 270.922 1048.98 271.648 1047.69 273.102C1046.43 274.555 1045.63 276.523 1045.3 279.008H1060.88Z" fill="#226EB7"/>
</g>
<defs>
<clipPath id="clip0_736_37118">
<rect width="1095" height="352" fill="white"/>
</clipPath>
</defs>
</svg>
